<?xml version="1.0" standalone="no"?>
<!DOCTYPE svg PUBLIC "-//W3C//DTD SVG 20010904//EN"
 "http://www.w3.org/TR/2001/REC-SVG-20010904/DTD/svg10.dtd">
<svg version="1.0" xmlns="http://www.w3.org/2000/svg"
 width="512.000000pt" height="512.000000pt" viewBox="0 0 512.000000 512.000000"
 preserveAspectRatio="xMidYMid meet">

<g transform="translate(0.000000,512.000000) scale(0.100000,-0.100000)"
fill="#000000" stroke="none">
<path d="M2390 5113 c-30 -2 -107 -10 -170 -19 -451 -60 -867 -235 -1240 -522
-109 -84 -346 -322 -432 -433 -456 -589 -636 -1320 -503 -2045 129 -700 552
-1321 1160 -1705 205 -128 473 -244 710 -305 890 -228 1809 22 2454 667 405
405 650 905 733 1494 19 141 16 504 -6 660 -62 440 -231 846 -499 1205 -82
109 -337 370 -444 453 -504 396 -1124 589 -1763 550z m339 -1048 c112 -38 191
-84 262 -155 124 -122 164 -242 156 -460 -6 -149 -29 -253 -91 -400 l-34 -80
70 0 70 0 -31 -35 c-109 -124 -121 -314 -27 -430 l24 -30 -28 -40 c-78 -114
-79 -274 -1 -381 l28 -40 -28 -40 c-77 -106 -77 -274 -1 -379 l28 -39 -32 -47
c-87 -130 -65 -321 51 -428 29 -26 40 -43 32 -48 -21 -13 -403 -16 -504 -4
-305 38 -620 132 -905 271 l-108 53 0 653 0 653 43 11 c245 62 391 142 533
292 211 223 318 548 313 959 -1 86 2 162 6 169 10 17 83 6 174 -25z m1216
-1122 c54 -28 119 -100 136 -149 7 -21 13 -66 13 -99 -1 -72 -34 -146 -87
-192 l-34 -30 48 -50 c58 -61 84 -137 74 -212 -8 -58 -54 -143 -95 -173 l-30
-22 41 -39 c88 -85 110 -212 54 -316 -16 -29 -44 -65 -63 -81 l-33 -27 35 -26
c51 -40 91 -128 91 -202 0 -112 -71 -213 -175 -250 -34 -12 -100 -15 -324 -15
-275 0 -282 1 -331 24 -173 82 -210 312 -69 435 l39 34 -50 51 c-104 105 -102
262 5 371 l40 40 -39 38 c-53 51 -74 99 -79 178 -5 82 22 153 80 204 l39 36
-45 44 c-108 109 -101 290 17 390 70 60 97 64 417 62 271 -2 287 -3 325 -24z
m-2357 -920 l2 -633 -275 0 c-261 0 -275 1 -285 19 -6 13 -10 224 -10 615 0
584 0 596 20 616 20 20 31 20 283 18 l262 -3 3 -632z"/>
</g>
</svg>
